<?xml version="1.0" encoding="UTF-8"?>
<!--Generator: Apple Native CoreSVG 341-->
<!DOCTYPE svg
PUBLIC "-//W3C//DTD SVG 1.1//EN"
       "http://www.w3.org/Graphics/SVG/1.1/DTD/svg11.dtd">
<svg version="1.1" xmlns="http://www.w3.org/2000/svg" xmlns:xlink="http://www.w3.org/1999/xlink" viewBox="0 0 80.2753 49.8738">
 <g>
  <rect height="49.8738" opacity="0" width="80.2753" x="0" y="0"/>
  <path d="M7.4472 40.8638C7.4472 41.8672 8.00657 42.4266 8.98845 42.4266L71.1209 42.4266C72.0813 42.4266 72.6622 41.8672 72.6622 40.8638L72.6622 8.99813C72.6622 8.01626 72.0813 7.44501 71.1209 7.44501L8.98845 7.44501C8.00657 7.44501 7.4472 8.01626 7.4472 8.99813ZM10.0706 39.1909L10.0706 10.6806C10.0706 10.2797 10.2603 10.0684 10.6613 10.0684L69.4169 10.0684C69.8275 10.0684 70.0291 10.2797 70.0291 10.6806L70.0291 39.1909C70.0291 39.5919 69.8275 39.7934 69.4169 39.7934L10.6613 39.7934C10.2603 39.7934 10.0706 39.5919 10.0706 39.1909ZM39.9722 42.4266C46.4122 42.4266 52.0197 35.8875 52.0197 24.8997C52.0197 13.9625 46.4122 7.44501 39.9722 7.44501C33.6519 7.44501 28.0897 13.9625 28.0897 24.8997C28.0897 35.8875 33.6325 42.4266 39.9722 42.4266ZM39.9722 39.4463C35.3409 39.4463 31.0269 34.1456 31.0269 24.8997C31.0269 15.7044 35.3409 10.4253 39.9722 10.4253C44.7038 10.4253 49.1041 15.7044 49.1041 24.8997C49.1041 34.1456 44.7038 39.4463 39.9722 39.4463Z" fill="black" fill-opacity="0.85"/>
  <path d="M0 47.7419C0 49.0385 0.835314 49.8738 2.12219 49.8738L77.9775 49.8738C79.2644 49.8738 80.0878 49.0385 80.0878 47.7419L80.0878 2.12C80.0878 0.833126 79.2644 0.0193748 77.9775 0.0193748L2.12219 0.0193748C0.835314 0.0193748 0 0.833126 0 2.12ZM3.86876 45.2053L3.86876 4.68782C3.86876 4.10688 4.10907 3.87845 4.66845 3.87845L75.4194 3.87845C75.9906 3.87845 76.2191 4.10688 76.2191 4.68782L76.2191 45.2053C76.2191 45.755 75.9906 46.005 75.4194 46.005L4.66845 46.005C4.10907 46.005 3.86876 45.755 3.86876 45.2053Z" fill="black" fill-opacity="0.85"/>
 </g>
</svg>
