<?xml version="1.0" encoding="UTF-8"?>
<!--Generator: Apple Native CoreSVG 341-->
<!DOCTYPE svg
PUBLIC "-//W3C//DTD SVG 1.1//EN"
       "http://www.w3.org/Graphics/SVG/1.1/DTD/svg11.dtd">
<svg version="1.1" xmlns="http://www.w3.org/2000/svg" xmlns:xlink="http://www.w3.org/1999/xlink" viewBox="0 0 80.2753 49.8738">
 <g>
  <rect height="49.8738" opacity="0" width="80.2753" x="0" y="0"/>
  <path d="M8.08719 41.1528C8.08719 41.5753 8.32001 41.7769 8.72095 41.7769L33.6234 41.7769C30.0009 38.6441 27.8406 32.6269 27.8406 24.8997C27.8406 17.2038 29.9913 11.2178 33.5513 8.10657L8.72095 8.10657C8.32001 8.10657 8.08719 8.31782 8.08719 8.74032ZM30.8641 24.8997C30.8641 34.7369 34.5006 41.3263 39.9722 41.3263C45.5419 41.3263 49.2669 34.7369 49.2669 24.8997C49.2669 15.0625 45.5419 8.50438 39.9722 8.50438C34.5006 8.50438 30.8641 15.0625 30.8641 24.8997ZM46.4503 41.7769L71.3669 41.7769C71.7678 41.7769 71.9909 41.5753 71.9909 41.1528L71.9909 8.74032C71.9909 8.31782 71.7678 8.10657 71.3669 8.10657L46.4816 8.10657C50.0966 11.2178 52.2688 17.2038 52.2688 24.8997C52.2688 32.6269 50.075 38.6441 46.4503 41.7769Z" fill="black" fill-opacity="0.85"/>
  <path d="M0 47.7419C0 49.0385 0.835314 49.8738 2.12219 49.8738L77.9775 49.8738C79.2644 49.8738 80.0878 49.0385 80.0878 47.7419L80.0878 2.12C80.0878 0.833126 79.2644 0.0193748 77.9775 0.0193748L2.12219 0.0193748C0.835314 0.0193748 0 0.833126 0 2.12ZM5.39907 42.8688L5.39907 7.01469C5.39907 5.97782 6.00157 5.41844 6.98344 5.41844L73.1044 5.41844C74.1078 5.41844 74.6791 5.97782 74.6791 7.01469L74.6791 42.8688C74.6791 43.8938 74.1078 44.465 73.1044 44.465L6.98344 44.465C6.00157 44.465 5.39907 43.8938 5.39907 42.8688Z" fill="black" fill-opacity="0.85"/>
 </g>
</svg>
