<?xml version="1.0" encoding="UTF-8"?>
<!--Generator: Apple Native CoreSVG 341-->
<!DOCTYPE svg
PUBLIC "-//W3C//DTD SVG 1.1//EN"
       "http://www.w3.org/Graphics/SVG/1.1/DTD/svg11.dtd">
<svg version="1.1" xmlns="http://www.w3.org/2000/svg" xmlns:xlink="http://www.w3.org/1999/xlink" viewBox="0 0 37.6647 70.5688">
 <g>
  <rect height="70.5688" opacity="0" width="37.6647" x="0" y="0"/>
  <path d="M3.07969 62.0969L18.7484 62.0969C28.9019 62.0969 37.4772 57.5719 37.4772 47.3625C37.4772 39.8034 31.9216 34.6966 24.1909 33.8678L24.1909 33.5144C30.3447 32.425 34.6044 27.3106 34.6044 21.2009C34.6044 12.6125 27.3966 7.89781 18.5309 7.89781L3.07969 7.89781C1.21594 7.89781 0 9.13532 0 10.9581L0 59.0366C0 60.7731 1.10813 62.0969 3.07969 62.0969ZM4.69564 32.1141L4.69564 12.0447L17.5294 12.0447C24.4372 12.0447 29.8656 15.1175 29.8656 21.6656C29.8656 29.0284 23.6362 32.1141 16.2637 32.1141ZM4.69564 57.9694L4.69564 36.22L17.3009 36.22C25.5041 36.22 32.6953 39.045 32.6953 47.1372C32.6953 54.9331 26.0837 57.9694 18.0584 57.9694ZM8.00281 10.1628L11.2366 10.1628L11.2366 1.605C11.2366 0.679064 10.5575 0 9.61969 0C8.68187 0 8.00281 0.679064 8.00281 1.605ZM17.3925 10.1628L20.6144 10.1628L20.6144 1.605C20.6144 0.679064 19.9353 0 19.0406 0C18.0931 0 17.3925 0.679064 17.3925 1.605ZM8.00281 59.5734L8.00281 68.8894C8.00281 69.8153 8.68187 70.5159 9.61969 70.5159C10.5575 70.5159 11.2366 69.8153 11.2366 68.8894L11.2366 59.5734ZM17.3925 59.5734L17.3925 68.8894C17.3925 69.8153 18.0931 70.5159 19.0406 70.5159C19.9353 70.5159 20.6144 69.8153 20.6144 68.8894L20.6144 59.5734Z" fill="black" fill-opacity="0.85"/>
 </g>
</svg>
