<?xml version="1.0" encoding="UTF-8"?>
<!--Generator: Apple Native CoreSVG 341-->
<!DOCTYPE svg
PUBLIC "-//W3C//DTD SVG 1.1//EN"
       "http://www.w3.org/Graphics/SVG/1.1/DTD/svg11.dtd">
<svg version="1.1" xmlns="http://www.w3.org/2000/svg" xmlns:xlink="http://www.w3.org/1999/xlink" viewBox="0 0 72.8016 52.2631">
 <g>
  <rect height="52.2631" opacity="0" width="72.8016" x="0" y="0"/>
  <path d="M13.2853 42.0619L20.9416 42.0619C22.7853 42.0619 24.0138 40.8216 24.0138 39.0619L24.0138 33.2709C24.0138 31.4994 22.7853 30.2709 20.9416 30.2709L13.2853 30.2709C11.4513 30.2709 10.2228 31.4994 10.2228 33.2709L10.2228 39.0619C10.2228 40.8216 11.4513 42.0619 13.2853 42.0619ZM2.03719 18.5066L70.6566 18.5066L70.6566 11.5194L2.03719 11.5194ZM9.21188 52.2631L63.3925 52.2631C69.5191 52.2631 72.6141 49.1703 72.6141 43.1494L72.6141 9.19563C72.6141 3.17469 69.5191 0.0603123 63.3925 0.0603123L9.21188 0.0603123C3.11656 0.0603123 0 3.15531 0 9.19563L0 43.1494C0 49.1897 3.11656 52.2631 9.21188 52.2631ZM9.28407 48.4041C5.76188 48.4041 3.86876 46.5541 3.86876 42.9359L3.86876 9.40907C3.86876 5.79095 5.76188 3.91938 9.28407 3.91938L63.33 3.91938C66.7509 3.91938 68.7453 5.79095 68.7453 9.40907L68.7453 42.9359C68.7453 46.5541 66.7509 48.4041 63.33 48.4041Z" fill="black" fill-opacity="0.85"/>
 </g>
</svg>
