<?xml version="1.0" encoding="UTF-8"?>
<!--Generator: Apple Native CoreSVG 341-->
<!DOCTYPE svg
PUBLIC "-//W3C//DTD SVG 1.1//EN"
       "http://www.w3.org/Graphics/SVG/1.1/DTD/svg11.dtd">
<svg version="1.1" xmlns="http://www.w3.org/2000/svg" xmlns:xlink="http://www.w3.org/1999/xlink" viewBox="0 0 72.8016 52.2631">
 <g>
  <rect height="52.2631" opacity="0" width="72.8016" x="0" y="0"/>
  <path d="M12.4616 42.8856C10.6275 42.8856 9.39907 41.6453 9.39907 39.8953L9.39907 34.0947C9.39907 32.3231 10.6275 31.0947 12.4616 31.0947L20.1178 31.0947C21.9616 31.0947 23.19 32.3231 23.19 34.0947L23.19 39.8953C23.19 41.6453 21.9616 42.8856 20.1178 42.8856ZM0 18.8856L0 11.8984L72.6141 11.8984L72.6141 18.8856ZM9.21188 52.2631L63.3925 52.2631C69.5191 52.2631 72.6141 49.1703 72.6141 43.1494L72.6141 9.19563C72.6141 3.17469 69.5191 0.0603123 63.3925 0.0603123L9.21188 0.0603123C3.11656 0.0603123 0 3.15531 0 9.19563L0 43.1494C0 49.1897 3.11656 52.2631 9.21188 52.2631Z" fill="black" fill-opacity="0.85"/>
 </g>
</svg>
