<?xml version="1.0" encoding="UTF-8"?>
<!--Generator: Apple Native CoreSVG 341-->
<!DOCTYPE svg
PUBLIC "-//W3C//DTD SVG 1.1//EN"
       "http://www.w3.org/Graphics/SVG/1.1/DTD/svg11.dtd">
<svg version="1.1" xmlns="http://www.w3.org/2000/svg" xmlns:xlink="http://www.w3.org/1999/xlink" viewBox="0 0 67.7794 65.3431">
 <g>
  <rect height="65.3431" opacity="0" width="67.7794" x="0" y="0"/>
  <path d="M37.3431 1.00656L64.1372 16.4806C65.0222 16.9819 65.4178 17.62 65.4178 18.325C65.4178 19.3156 64.6697 20.2653 63.3288 20.2653L60.4722 20.2653L60.4722 57.8012L62.4722 57.8012C63.4434 57.8012 63.9975 58.3769 63.9975 59.3169L63.9975 61.4431L65.6516 61.4431C66.7069 61.4431 67.5919 62.3066 67.5919 63.3619C67.5919 64.4269 66.7069 65.3119 65.6516 65.3119L1.91875 65.3119C0.86344 65.3119 0 64.4269 0 63.3619C0 62.3066 0.86344 61.4431 1.91875 61.4431L3.59438 61.4431L3.59438 59.3169C3.59438 58.3769 4.17001 57.8012 5.14126 57.8012L7.1197 57.8012L7.1197 20.2653L4.26313 20.2653C2.92219 20.2653 2.18375 19.3156 2.18375 18.325C2.18375 17.62 2.54813 16.9819 3.45469 16.4806L30.2488 1.00656C31.3588 0.345938 32.6056 0 33.79 0C34.9744 0 36.19 0.345938 37.3431 1.00656ZM32.9138 18.6506L32.9138 21.4297C28.3769 21.7562 24.3747 24.4353 24.3747 28.8859C24.3747 33.3788 28.2316 35.1525 32.1228 36.0706L32.9138 36.2678L32.9138 46.4828C29.8516 46.2738 27.5534 44.8828 26.7278 41.9897C26.4378 41.1663 25.955 40.8159 25.2447 40.8159C24.4622 40.8159 23.8359 41.3344 23.8359 42.2128C23.8359 42.4866 23.8984 42.7916 23.9728 43.0869C25.0322 46.9834 28.9881 48.8369 32.9138 49.1106L32.9138 52.0178C32.9138 52.5147 33.3147 52.9469 33.8116 52.9469C34.3181 52.9469 34.7191 52.5147 34.7191 52.0178L34.7191 49.1106C39.5566 48.8369 43.7872 46.4025 43.7872 41.4163C43.7872 36.8631 40.1134 35.0462 35.7653 34.0247L34.7191 33.7866L34.7191 24.0456C37.5184 24.2666 39.6916 25.7094 40.405 28.3094C40.64 29.1134 41.1778 29.5359 41.8784 29.5359C42.5747 29.5359 43.3184 29.0822 43.3184 28.1897C43.3184 24.6366 39.1284 21.7562 34.7191 21.4297L34.7191 18.6506C34.7191 18.1753 34.3181 17.7431 33.8116 17.7431C33.3147 17.7431 32.9138 18.1753 32.9138 18.6506ZM35.2253 36.8228C38.1638 37.5297 40.8619 38.6072 40.8619 41.6394C40.8619 44.9819 37.8891 46.305 34.7191 46.5044L34.7191 36.6903ZM32.9138 33.3544L32.5981 33.2725C29.9494 32.6356 27.3409 31.4578 27.3409 28.6725C27.3409 25.7622 30.1025 24.3409 32.9138 24.0456Z" fill="black" fill-opacity="0.85"/>
 </g>
</svg>
