<?xml version="1.0" encoding="UTF-8"?>
<!--Generator: Apple Native CoreSVG 341-->
<!DOCTYPE svg
PUBLIC "-//W3C//DTD SVG 1.1//EN"
       "http://www.w3.org/Graphics/SVG/1.1/DTD/svg11.dtd">
<svg version="1.1" xmlns="http://www.w3.org/2000/svg" xmlns:xlink="http://www.w3.org/1999/xlink" viewBox="0 0 39.4153 69.8488">
 <g>
  <rect height="69.8488" opacity="0" width="39.4153" x="0" y="0"/>
  <path d="M19.7556 62.1172C30.0953 62.1172 39.2278 56.8628 39.2278 47.1447C39.2278 38.0119 31.7388 34.7553 23.3784 32.7681L17.3688 31.3187C11.2453 29.8566 5.80001 27.2716 5.80001 21.3713C5.80001 14.7663 12.8984 11.3238 19.6953 11.3238C26.4741 11.3238 32.3337 14.6456 33.7425 20.7119C34.0875 21.8416 34.8044 22.6575 36.0903 22.6575C37.3472 22.6575 38.2344 21.8038 38.2344 20.5447C38.2344 18.0834 36.6847 14.9022 34.5963 12.7944C30.8031 9.00125 25.2956 7.23938 19.6953 7.23938C10.2725 7.23938 1.23375 12.3688 1.23375 21.6947C1.23375 30.0797 8.63781 33.7631 16.5431 35.5972L22.5647 36.9938C29.0006 38.5066 34.6928 40.8588 34.6928 47.4488C34.6928 54.7597 27.6344 58.0544 19.8084 58.0544C12.3403 58.0544 5.86501 54.7694 4.46064 47.8822C4.1372 46.7094 3.44407 46.0281 2.21844 46.0281C0.885002 46.0281 0 46.9347 0 48.1388C0 50.9094 1.80938 54.2747 3.85906 56.3469C7.95188 60.3641 13.9281 62.1172 19.7556 62.1172ZM19.6091 69.8175C20.4919 69.8175 21.2141 69.0738 21.2141 68.1909L21.2141 1.59532C21.2141 0.743752 20.4919 0 19.6091 0C18.7359 0 18.0137 0.743752 18.0137 1.59532L18.0137 68.1909C18.0137 69.0738 18.7359 69.8175 19.6091 69.8175Z" fill="black" fill-opacity="0.85"/>
 </g>
</svg>
