<?xml version="1.0" encoding="UTF-8"?>
<!--Generator: Apple Native CoreSVG 341-->
<!DOCTYPE svg
PUBLIC "-//W3C//DTD SVG 1.1//EN"
       "http://www.w3.org/Graphics/SVG/1.1/DTD/svg11.dtd">
<svg version="1.1" xmlns="http://www.w3.org/2000/svg" xmlns:xlink="http://www.w3.org/1999/xlink" viewBox="0 0 67.7794 65.3431">
 <g>
  <rect height="65.3431" opacity="0" width="67.7794" x="0" y="0"/>
  <path d="M3.59438 59.0369L63.9975 59.0369L63.9975 57.3112C63.9975 56.3712 63.4434 55.7956 62.4722 55.7956L60.4722 55.7956L60.4722 20.2653L63.3288 20.2653C64.6697 20.2653 65.4178 19.3156 65.4178 18.325C65.4178 17.62 65.0222 16.9819 64.1372 16.4806L37.3431 1.00656C36.19 0.345938 34.9744 0 33.79 0C32.6056 0 31.3588 0.345938 30.2488 1.00656L3.45469 16.4806C2.54813 16.9819 2.18375 17.62 2.18375 18.325C2.18375 19.3156 2.92219 20.2653 4.26313 20.2653L7.1197 20.2653L7.1197 55.7956L5.14126 55.7956C4.17001 55.7956 3.59438 56.3712 3.59438 57.3112ZM10.7825 55.7956L10.7825 16.7497L32.2903 4.60907C32.7525 4.34188 33.2772 4.18782 33.79 4.18782C34.3028 4.18782 34.8178 4.34188 35.3016 4.60907L56.8191 16.7497L56.8191 55.7956ZM1.91875 65.3119L65.6516 65.3119C66.7069 65.3119 67.5919 64.4269 67.5919 63.3619C67.5919 62.3066 66.7069 61.4431 65.6516 61.4431L1.91875 61.4431C0.86344 61.4431 0 62.3066 0 63.3619C0 64.4269 0.86344 65.3119 1.91875 65.3119Z" fill="black" fill-opacity="0.85"/>
  <path d="M33.8525 46.0372C38.9422 46.0372 43.5813 43.6675 43.5813 38.5056C43.5813 34.0387 39.9841 32.2553 35.7222 31.2553L32.7922 30.5775C30.1122 29.9622 27.4606 28.8059 27.4606 26.0109C27.4606 22.8291 30.8419 21.4488 33.8525 21.4488C37.055 21.4488 39.5094 22.87 40.2853 25.6478C40.5203 26.4519 41.0366 26.8528 41.7059 26.8528C42.3903 26.8528 43.1125 26.3991 43.1125 25.5281C43.1125 21.8284 38.4138 18.8878 33.8525 18.8878C29.0634 18.8878 24.5806 21.5647 24.5806 26.2244C24.5806 30.6094 28.3513 32.3497 32.1659 33.2678L35.1175 33.9553C38.0441 34.6406 40.7325 35.7278 40.7325 38.7288C40.7325 42.2706 37.3059 43.5172 33.9269 43.5172C30.3894 43.5172 27.7691 42.2028 26.8475 39.0575C26.5791 38.2438 26.1059 37.9269 25.4075 37.9269C24.6466 37.9269 24.0516 38.4238 24.0516 39.2806C24.0516 39.5328 24.1044 39.8475 24.1788 40.1428C25.2909 44.2484 29.72 46.0372 33.8525 46.0372ZM33.8116 49.7656C34.2966 49.7656 34.6975 49.3647 34.6975 48.8797L34.6975 16.2166C34.6975 15.7197 34.2966 15.3306 33.8116 15.3306C33.3363 15.3306 32.9256 15.7197 32.9256 16.2166L32.9256 48.8797C32.9256 49.3647 33.3363 49.7656 33.8116 49.7656Z" fill="black" fill-opacity="0.85"/>
 </g>
</svg>
