<?xml version="1.0" encoding="UTF-8"?>
<!--Generator: Apple Native CoreSVG 341-->
<!DOCTYPE svg
PUBLIC "-//W3C//DTD SVG 1.1//EN"
       "http://www.w3.org/Graphics/SVG/1.1/DTD/svg11.dtd">
<svg version="1.1" xmlns="http://www.w3.org/2000/svg" xmlns:xlink="http://www.w3.org/1999/xlink" viewBox="0 0 44.9228 55.2281">
 <g>
  <rect height="55.2281" opacity="0" width="44.9228" x="0" y="0"/>
  <path d="M37.1222 55.1441C38.7991 55.1441 40.9597 55.0838 42.4975 54.7356C43.8481 54.4263 44.7353 53.8194 44.7353 52.5312C44.7353 51.1019 43.805 50.5069 42.4781 50.5069C41.0531 50.5069 40.1847 50.8484 37.2634 50.8484C23.2403 50.8484 14.1888 42.2953 14.1888 27.8397L14.1888 27.3475C14.1888 13.0763 22.9697 4.41314 37.1438 4.41314C39.4041 4.41314 41.7572 4.73314 42.4781 4.73314C43.8913 4.73314 44.7353 4.02063 44.7353 2.67751C44.7353 1.39907 43.805 0.760939 42.4975 0.439688C40.8734 0.0603123 38.7225 0 37.1438 0C20.5856 0 9.30562 10.0847 9.30562 27.5263L9.30562 27.6491C9.30562 44.6356 19.9581 55.1441 37.1222 55.1441ZM0 22.2328C0 23.1781 0.657501 23.8453 1.60282 23.8453L35.8531 23.8766C36.8631 23.8766 37.4991 23.2191 37.4991 22.2522C37.4991 21.2637 36.8631 20.5847 35.8531 20.5847L1.60282 20.5653C0.657501 20.5653 0 21.2444 0 22.2328ZM0 33.1481C0 34.0934 0.657501 34.7725 1.60282 34.7725L35.8531 34.7822C36.8631 34.7822 37.4991 34.1247 37.4991 33.1578C37.4991 32.1694 36.8631 31.4903 35.8531 31.4903L1.60282 31.4806C0.657501 31.4806 0 32.1813 0 33.1481Z" fill="black" fill-opacity="0.85"/>
 </g>
</svg>
