<?xml version="1.0" encoding="UTF-8"?>
<!--Generator: Apple Native CoreSVG 341-->
<!DOCTYPE svg
PUBLIC "-//W3C//DTD SVG 1.1//EN"
       "http://www.w3.org/Graphics/SVG/1.1/DTD/svg11.dtd">
<svg version="1.1" xmlns="http://www.w3.org/2000/svg" xmlns:xlink="http://www.w3.org/1999/xlink" viewBox="0 0 20.8781 31.8335">
 <g>
  <rect height="31.8335" opacity="0" width="20.8781" x="0" y="0"/>
  <path d="M17.965 31.3945C18.1424 31.4693 18.4177 31.4378 18.5446 31.1803L20.467 27.0168C20.5939 26.771 20.4868 26.5495 20.2608 26.4307L17.6378 25.2103L19.3189 21.651C19.4224 21.4206 19.3197 21.1712 19.0542 21.0479L15.49 19.3515C18.0524 17.1031 18.9322 14.3183 17.9724 11.6779C17.4964 10.3678 16.6487 9.31758 15.5783 8.59301C15.0727 10.0512 14.0765 11.2608 12.776 12.04C12.866 12.72 12.4631 13.3859 11.7903 13.6275C10.9586 13.9447 10.0405 13.505 9.73494 12.6507C9.42135 11.8389 9.8485 10.9207 10.6955 10.6035C11.2265 10.4123 11.8161 10.5198 12.2234 10.8653C13.2677 10.2021 14.0678 9.15621 14.3971 7.92117C12.9472 7.31906 11.2907 7.24512 9.69733 7.82098C6.31365 9.05192 4.61678 12.7249 5.82791 16.0843C6.76424 18.6509 9.1299 20.3558 11.8415 20.3647L15.3031 29.8763C15.386 30.105 15.5193 30.2582 15.7553 30.3645ZM1.69635 31.0474L5.85545 29.1045C6.10119 28.9937 6.19213 28.748 6.0733 28.5184L4.84647 25.8946L8.42479 24.2479C8.64264 24.1363 8.73076 23.8869 8.61194 23.6214L7.24342 20.6391C7.33424 20.5618 7.42143 20.4774 7.50861 20.3884C6.17373 19.5466 5.09467 18.2009 4.50463 16.5758C3.18439 12.9323 4.71709 8.84403 8.23435 7.14609C5.21783 6.92567 2.66525 8.6011 1.65744 11.3118C0.724745 13.8775 1.45658 16.7026 3.52119 18.4589L0.0515022 27.9704C-0.0232635 28.1956-0.0196307 28.4118 0.0822053 28.6316L1.12928 30.8449C1.20404 31.0224 1.44697 31.1743 1.69635 31.0474ZM3.44889 8.92313L4.63166 8.3775C4.40783 7.79848 4.28866 7.15442 4.28866 6.49055C4.28866 3.60129 6.55319 1.3125 9.41983 1.3125C12.2982 1.3125 14.606 3.60129 14.606 6.49055C14.606 6.98707 14.5498 7.48969 14.3971 7.92117C14.8163 8.09215 15.2112 8.32418 15.5783 8.59301C15.7948 7.95375 15.931 7.21102 15.931 6.49055C15.931 2.91938 12.9963 0 9.42791 0C5.87572 0 2.9717 2.91211 2.9717 6.49055C2.9717 7.35528 3.14221 8.1784 3.44889 8.92313Z" fill="black" fill-opacity="0.85"/>
 </g>
</svg>
