<?xml version="1.0" encoding="UTF-8"?>
<!--Generator: Apple Native CoreSVG 341-->
<!DOCTYPE svg
PUBLIC "-//W3C//DTD SVG 1.1//EN"
       "http://www.w3.org/Graphics/SVG/1.1/DTD/svg11.dtd">
<svg version="1.1" xmlns="http://www.w3.org/2000/svg" xmlns:xlink="http://www.w3.org/1999/xlink" viewBox="0 0 21.4936 31.8335">
 <g>
  <rect height="31.8335" opacity="0" width="21.4936" x="0" y="0"/>
  <path d="M18.1063 31.6545C18.5154 31.7984 18.9524 31.7102 19.1557 31.2785L21.0711 27.1466C21.2591 26.7347 21.0828 26.3139 20.6782 26.1178L18.3933 25.0588L19.9174 21.8311C20.0973 21.4471 19.9182 20.9903 19.5144 20.8023L16.3959 19.34C18.7585 17.0876 19.5513 14.3248 18.6093 11.7135C17.3315 8.21707 13.4738 6.43453 9.97461 7.72406C6.45922 8.9857 4.67586 12.8191 5.94559 16.3228C6.88473 18.9014 9.23821 20.6407 11.9691 20.7547L15.3712 30.0857C15.4702 30.3593 15.6647 30.658 15.986 30.7805ZM18.169 30.2187L16.5632 29.4582L12.9029 19.4054C10.2602 19.6447 8.05133 18.1597 7.20676 15.864C6.18442 13.0665 7.62864 9.97969 10.4261 8.96098C13.2588 7.92692 16.3375 9.37922 17.3401 12.1804C18.2036 14.5205 17.3166 17.1447 14.8571 18.9123L15.3903 20.3381L18.4735 21.789L17.0359 24.8114L17.5217 26.1195L19.6191 27.0965ZM2.21633 31.3352L6.33208 29.4117C6.75208 29.2157 6.89235 28.7589 6.6963 28.3668L5.62555 26.0855L8.87669 24.5884C9.2688 24.4085 9.41352 23.9517 9.23364 23.5479L7.78309 20.4141C8.68661 20.3611 9.54044 20.1918 10.3005 19.917L8.82957 19.0038C8.29743 19.0959 7.74266 19.1258 6.87653 19.0971L6.36594 20.5347L7.79703 23.6332L4.75122 25.0276L4.27989 26.3474L5.26051 28.4331L2.14274 29.8914L1.39403 28.2731L5.06165 18.2284C2.90176 16.7721 2.13793 14.1479 2.97524 11.8531C3.95715 9.14895 6.85719 7.7209 9.57746 8.54836L11.3504 7.87008C11.0282 7.67485 10.6907 7.51922 10.3245 7.38422C6.81723 6.10277 2.98016 7.87805 1.71406 11.3898C0.763205 13.9684 1.46914 16.821 3.47668 18.6638L0.0826973 27.9902C-0.0163263 28.2764-0.0450374 28.6139 0.101682 28.9146L1.17137 30.954C1.37633 31.3425 1.78543 31.5305 2.21633 31.3352ZM12.1371 13.6392C12.9958 13.3293 13.4266 12.3804 13.113 11.5306C12.8039 10.6807 11.8631 10.2418 11.0124 10.5473C10.1545 10.8565 9.7318 11.7973 10.0373 12.6435C10.3545 13.505 11.2791 13.9601 12.1371 13.6392ZM3.32293 6.49864C3.32293 7.35528 3.49344 8.1784 3.80375 8.92313L4.99098 8.3775C4.75098 7.79848 4.6318 7.1625 4.6318 6.49864C4.6318 3.60938 6.90442 1.3125 9.77106 1.3125C12.6413 1.3125 14.9572 3.60938 14.9572 6.49864C14.9572 8.95149 13.2661 10.9825 10.9854 11.5171L11.2473 12.8025C14.119 12.1321 16.2741 9.53801 16.2741 6.49864C16.2741 2.91938 13.3475 0 9.77915 0C6.21887 0 3.32293 2.91211 3.32293 6.49864Z" fill="black" fill-opacity="0.85"/>
 </g>
</svg>
