<?xml version="1.0" encoding="UTF-8"?>
<!--Generator: Apple Native CoreSVG 341-->
<!DOCTYPE svg
PUBLIC "-//W3C//DTD SVG 1.1//EN"
       "http://www.w3.org/Graphics/SVG/1.1/DTD/svg11.dtd">
<svg version="1.1" xmlns="http://www.w3.org/2000/svg" xmlns:xlink="http://www.w3.org/1999/xlink" viewBox="0 0 15.0004 28.5483">
 <g>
  <rect height="28.5483" opacity="0" width="15.0004" x="0" y="0"/>
  <path d="M7.32844 0.0899939C3.24738 0.0899939 0 3.33738 0 7.39863C0 10.4803 1.85684 13.2023 4.75383 14.2757L4.75383 25.7803C4.75383 26.0333 4.83668 26.2523 5.03672 26.4605L6.95379 28.3856C7.14574 28.5776 7.47879 28.6216 7.70309 28.3973L11.3634 24.737C11.5732 24.5155 11.5651 24.2302 11.3634 24.0168L9.02578 21.707L12.2153 18.5328C12.4016 18.3348 12.4016 18.0422 12.1882 17.8207L9.00481 14.6175C12.6295 13.2124 14.6488 10.5769 14.6488 7.39863C14.6488 3.35718 11.3816 0.0899939 7.32844 0.0899939ZM7.32844 6.75011C6.28219 6.75011 5.45133 5.91117 5.45133 4.873C5.45133 3.82675 6.2741 2.99589 7.32844 2.99589C8.36297 2.99589 9.20555 3.82675 9.20555 4.873C9.20555 5.91117 8.36297 6.75011 7.32844 6.75011Z" fill="black" fill-opacity="0.85"/>
 </g>
</svg>
