<?xml version="1.0" encoding="UTF-8"?>
<!--Generator: Apple Native CoreSVG 341-->
<!DOCTYPE svg
PUBLIC "-//W3C//DTD SVG 1.1//EN"
       "http://www.w3.org/Graphics/SVG/1.1/DTD/svg11.dtd">
<svg version="1.1" xmlns="http://www.w3.org/2000/svg" xmlns:xlink="http://www.w3.org/1999/xlink" viewBox="0 0 23.8618 23.5184">
 <g>
  <rect height="23.5184" opacity="0" width="23.8618" x="0" y="0"/>
  <path d="M23.5103 11.765C23.5103 18.2464 18.2347 23.5184 11.7533 23.5184C5.28363 23.5184 0 18.2464 0 11.765C0 5.29172 5.28363 0.0117188 11.7533 0.0117188C18.2347 0.0117188 23.5103 5.29172 23.5103 11.765ZM7.88848 8.39121C7.88848 10.0218 8.86113 11.4486 10.3979 12.0281L10.3979 18.1037C10.3979 18.2343 10.4331 18.347 10.5394 18.4614L11.5561 19.4627C11.6579 19.5763 11.8362 19.6005 11.9542 19.4781L13.8975 17.5473C13.9965 17.4366 13.9884 17.2818 13.8975 17.171L12.657 15.9503L14.3428 14.2717C14.4418 14.1771 14.4418 14.0106 14.3311 13.8998L12.6541 12.195C14.5562 11.4595 15.6182 10.0759 15.6182 8.39121C15.6182 6.25957 13.9165 4.52637 11.7533 4.52637C9.60996 4.52637 7.88848 6.25149 7.88848 8.39121ZM12.8464 7.15266C12.8464 7.76004 12.3607 8.24578 11.7533 8.24578C11.1496 8.24578 10.6719 7.76004 10.6719 7.15266C10.6719 6.54891 11.1496 6.07125 11.7533 6.07125C12.3607 6.07125 12.8464 6.54891 12.8464 7.15266Z" fill="black" fill-opacity="0.85"/>
 </g>
</svg>
