<?xml version="1.0" encoding="UTF-8"?>
<!--Generator: Apple Native CoreSVG 341-->
<!DOCTYPE svg
PUBLIC "-//W3C//DTD SVG 1.1//EN"
       "http://www.w3.org/Graphics/SVG/1.1/DTD/svg11.dtd">
<svg version="1.1" xmlns="http://www.w3.org/2000/svg" xmlns:xlink="http://www.w3.org/1999/xlink" viewBox="0 0 15.4637 28.796">
 <g>
  <rect height="28.796" opacity="0" width="15.4637" x="0" y="0"/>
  <path d="M6.94324 28.3991C7.31192 28.7148 7.81641 28.7589 8.17618 28.4072L11.79 24.7897C12.1417 24.43 12.1291 23.9012 11.7819 23.5532L9.76934 21.5523L12.6176 18.7194C12.9656 18.3867 12.9422 17.8426 12.5986 17.4829L9.86239 14.7349C13.2267 13.2607 15.1122 10.6539 15.1122 7.53668C15.1122 3.36504 11.7354 0 7.56012 0C3.35332 0 0 3.34524 0 7.53668C0 10.6264 1.81195 13.3647 4.65234 14.5314L4.65234 25.7029C4.65234 26.0206 4.75137 26.3859 5.03672 26.647ZM7.56012 26.9617L6.10676 25.5164L6.10676 13.4808C3.34922 12.8016 1.4427 10.3936 1.4427 7.53668C1.4427 4.17188 4.16825 1.45442 7.56012 1.45442C10.9366 1.45442 13.6577 4.16825 13.6577 7.53668C13.6577 10.3665 11.7431 12.8016 8.52926 13.6464L8.52926 15.4868L11.1567 18.1187L8.44711 20.7932L8.44711 22.288L10.3328 24.1539ZM7.56012 7.06524C8.57403 7.06524 9.3968 6.24246 9.3968 5.22047C9.3968 4.20656 8.57403 3.39188 7.56012 3.39188C6.53004 3.39188 5.72344 4.20656 5.72344 5.22047C5.72344 6.24246 6.53813 7.06524 7.56012 7.06524Z" fill="black" fill-opacity="0.85"/>
 </g>
</svg>
