<?xml version="1.0" encoding="UTF-8"?>
<!--Generator: Apple Native CoreSVG 341-->
<!DOCTYPE svg
PUBLIC "-//W3C//DTD SVG 1.1//EN"
       "http://www.w3.org/Graphics/SVG/1.1/DTD/svg11.dtd">
<svg version="1.1" xmlns="http://www.w3.org/2000/svg" xmlns:xlink="http://www.w3.org/1999/xlink" viewBox="0 0 29.0078 15.132">
 <g>
  <rect height="15.132" opacity="0" width="29.0078" x="0" y="0"/>
  <path d="M0.260749 6.9477C-0.0630411 7.31192-0.107104 7.82086 0.252663 8.17618L3.86204 11.79C4.2218 12.1498 4.75864 12.1372 5.0986 11.7819L7.09946 9.77743L9.94044 12.6176C10.2768 12.9656 10.8172 12.9503 11.1725 12.5986L13.9286 9.86239C15.3911 13.2267 18.006 15.1122 21.1151 15.1122C25.2948 15.1122 28.6554 11.7435 28.6554 7.56012C28.6554 3.36141 25.3065 0 21.1151 0C18.0334 0 15.2871 1.81195 14.1285 4.65234L2.94891 4.65234C2.63122 4.65234 2.26946 4.74773 2.01282 5.04117ZM1.69009 7.56012L3.14345 6.11485L15.171 6.11485C15.8583 3.34922 18.2582 1.4427 21.1151 1.4427C24.4799 1.4427 27.201 4.16825 27.201 7.56012C27.201 10.9366 24.4952 13.6577 21.1151 13.6577C18.2933 13.6577 15.8583 11.7431 15.0135 8.52926L13.1686 8.52926L10.5448 11.1531L7.86224 8.44711L6.37184 8.44711L4.4979 10.3328ZM21.5865 7.56012C21.5865 8.58211 22.4093 9.40489 23.4313 9.40489C24.4533 9.40489 25.268 8.58211 25.268 7.56012C25.268 6.53004 24.4533 5.72344 23.4313 5.72344C22.4093 5.72344 21.5865 6.53813 21.5865 7.56012Z" fill="black" fill-opacity="0.85"/>
 </g>
</svg>
