<?xml version="1.0" encoding="UTF-8"?>
<!--Generator: Apple Native CoreSVG 341-->
<!DOCTYPE svg
PUBLIC "-//W3C//DTD SVG 1.1//EN"
       "http://www.w3.org/Graphics/SVG/1.1/DTD/svg11.dtd">
<svg version="1.1" xmlns="http://www.w3.org/2000/svg" xmlns:xlink="http://www.w3.org/1999/xlink" viewBox="0 0 23.8618 23.5184">
 <g>
  <rect height="23.5184" opacity="0" width="23.8618" x="0" y="0"/>
  <path d="M11.7533 23.5066C18.2456 23.5066 23.5103 18.242 23.5103 11.7533C23.5103 5.26102 18.2456 0 11.7533 0C5.26465 0 0 5.26102 0 11.7533C0 18.242 5.26465 23.5066 11.7533 23.5066ZM11.7533 21.9867C6.09657 21.9867 1.51993 17.4101 1.51993 11.7533C1.51993 6.09293 6.09657 1.51629 11.7533 1.51629C17.4137 1.51629 21.9904 6.09293 21.9904 11.7533C21.9904 17.4101 17.4137 21.9867 11.7533 21.9867Z" fill="black" fill-opacity="0.85"/>
  <path d="M11.7533 4.6691C9.65485 4.6691 7.9657 6.35379 7.9657 8.45672C7.9657 10.0468 8.92219 11.4531 10.4303 12.0164L10.4303 17.9663C10.4303 18.0923 10.4618 18.2095 10.5636 18.3158L11.5642 19.3047C11.6579 19.4101 11.8362 19.4344 11.9461 19.3083L13.8526 17.4179C13.948 17.3153 13.9399 17.1605 13.8526 17.0578L12.6327 15.8532L14.2898 14.2151C14.3889 14.1205 14.3889 13.9584 14.2781 13.8477L12.6299 12.1833C14.4952 11.464 15.5409 10.0965 15.5409 8.45672C15.5409 6.36188 13.868 4.6691 11.7533 4.6691ZM11.7533 8.31129C11.1657 8.31129 10.6962 7.83363 10.6962 7.24242C10.6962 6.65121 11.1657 6.18164 11.7533 6.18164C12.3445 6.18164 12.8222 6.65121 12.8222 7.24242C12.8222 7.83363 12.3445 8.31129 11.7533 8.31129Z" fill="black" fill-opacity="0.85"/>
 </g>
</svg>
