<?xml version="1.0" encoding="UTF-8"?>
<!--Generator: Apple Native CoreSVG 341-->
<!DOCTYPE svg
PUBLIC "-//W3C//DTD SVG 1.1//EN"
       "http://www.w3.org/Graphics/SVG/1.1/DTD/svg11.dtd">
<svg version="1.1" xmlns="http://www.w3.org/2000/svg" xmlns:xlink="http://www.w3.org/1999/xlink" viewBox="0 0 28.8254 14.6686">
 <g>
  <rect height="14.6686" opacity="0" width="28.8254" x="0" y="0"/>
  <path d="M28.4591 7.32844C28.4591 3.25547 25.2117 0 21.1505 0C18.0607 0 15.3468 1.85684 14.2734 4.75383L2.7688 4.75383C2.51579 4.75383 2.29677 4.83668 2.08055 5.04481L0.155397 6.96188C-0.0284699 7.14574-0.0725325 7.47879 0.151765 7.70309L3.81212 11.3671C4.0336 11.5732 4.31895 11.5651 4.53235 11.3671L6.84212 9.0375L10.0163 12.2153C10.2143 12.4097 10.5069 12.4097 10.7284 12.1882L13.9316 9.00481C15.3367 12.6295 17.9722 14.6488 21.1505 14.6488C25.1919 14.6488 28.4591 11.3897 28.4591 7.32844ZM21.799 7.32844C21.799 6.28219 22.6379 5.45133 23.6761 5.45133C24.7224 5.45133 25.5532 6.2741 25.5532 7.32844C25.5532 8.37469 24.7224 9.21363 23.6761 9.21363C22.6379 9.21363 21.799 8.37469 21.799 7.32844Z" fill="black" fill-opacity="0.85"/>
 </g>
</svg>
