<?xml version="1.0" encoding="UTF-8"?>
<!--Generator: Apple Native CoreSVG 341-->
<!DOCTYPE svg
PUBLIC "-//W3C//DTD SVG 1.1//EN"
       "http://www.w3.org/Graphics/SVG/1.1/DTD/svg11.dtd">
<svg version="1.1" xmlns="http://www.w3.org/2000/svg" xmlns:xlink="http://www.w3.org/1999/xlink" viewBox="0 0 62.8816 62.7156">
 <g>
  <rect height="62.7156" opacity="0" width="62.8816" x="0" y="0"/>
  <path d="M31.3422 62.6844C48.655 62.6844 62.6941 48.6453 62.6941 31.3422C62.6941 14.0294 48.655 0 31.3422 0C14.0391 0 0 14.0294 0 31.3422C0 48.6453 14.0391 62.6844 31.3422 62.6844ZM31.3422 58.6312C16.2575 58.6312 4.05313 46.4269 4.05313 31.3422C4.05313 16.2478 16.2575 4.04345 31.3422 4.04345C46.4366 4.04345 58.6409 16.2478 58.6409 31.3422C58.6409 46.4269 46.4366 58.6312 31.3422 58.6312Z" fill="black" fill-opacity="0.85"/>
  <path d="M18.2084 33.3978L44.4641 33.3978C45.7684 33.3978 46.6847 32.6347 46.6847 31.4047C46.6847 30.1338 45.8213 29.3587 44.4641 29.3587L18.2084 29.3587C16.8513 29.3587 15.9663 30.1338 15.9663 31.4047C15.9663 32.6347 16.9041 33.3978 18.2084 33.3978Z" fill="black" fill-opacity="0.85"/>
 </g>
</svg>
