<?xml version="1.0" encoding="UTF-8"?>
<!--Generator: Apple Native CoreSVG 341-->
<!DOCTYPE svg
PUBLIC "-//W3C//DTD SVG 1.1//EN"
       "http://www.w3.org/Graphics/SVG/1.1/DTD/svg11.dtd">
<svg version="1.1" xmlns="http://www.w3.org/2000/svg" xmlns:xlink="http://www.w3.org/1999/xlink" viewBox="0 0 30.0365 29.5004">
 <g>
  <rect height="29.5004" opacity="0" width="30.0365" x="0" y="0"/>
  <path d="M19.9833 17.4206C19.9786 17.4534 19.9782 17.4873 19.9782 17.5212C19.9782 18.0673 20.0623 18.5949 20.2217 19.0895C18.8375 18.2503 17.0253 17.6736 14.8406 17.6736C9.32731 17.6736 6.19091 21.3358 6.19091 23.5636C6.19091 23.9369 6.37794 24.0698 6.90786 24.0698L22.3507 24.0698L22.3507 25.4397L7.26973 25.4397C5.55329 25.4397 4.74012 24.901 4.74012 23.71C4.74012 20.6542 8.58633 16.3 14.8406 16.3C16.8082 16.3 18.538 16.7321 19.9833 17.4206ZM19.776 9.31001C19.776 12.3044 17.5861 14.6971 14.8515 14.6971C12.117 14.6971 9.92707 12.3125 9.92707 9.32618C9.92707 6.42227 12.1432 4.05263 14.8515 4.05263C17.5688 4.05263 19.776 6.3863 19.776 9.31001ZM11.3779 9.32618C11.3779 11.5784 12.9444 13.3272 14.8515 13.3272C16.7667 13.3272 18.3252 11.5659 18.3252 9.31001C18.3252 7.12482 16.7611 5.42255 14.8515 5.42255C12.9428 5.42255 11.3779 7.15271 11.3779 9.32618Z" fill="black" fill-opacity="0.85"/>
  <path d="M25.0096 13.8637C22.9636 13.8637 21.344 15.5104 21.344 17.5212C21.344 19.0968 22.2706 20.4336 23.7083 20.9779L23.7083 26.7569C23.7083 26.8757 23.7641 26.9848 23.8542 27.0984L24.8277 28.0609C24.9376 28.1709 25.069 28.179 25.1834 28.0609L27.0321 26.2275C27.1348 26.1168 27.1348 25.9891 27.0321 25.8792L25.8465 24.6972L27.4702 23.116C27.5656 23.025 27.5656 22.8747 27.4504 22.7522L25.8437 21.1573C27.6593 20.4372 28.6707 19.1356 28.6707 17.5212C28.6707 15.514 27.0394 13.8637 25.0096 13.8637ZM25.0015 15.3799C25.6125 15.3799 26.0982 15.87 26.0982 16.4802C26.0982 17.0921 25.6125 17.5968 25.0015 17.5968C24.3986 17.5968 23.893 17.0921 23.893 16.4802C23.893 15.87 24.3788 15.3799 25.0015 15.3799Z" fill="black" fill-opacity="0.85"/>
 </g>
</svg>
